<?xml version="1.0" encoding="UTF-8" standalone="no"?>
<!DOCTYPE svg PUBLIC "-//W3C//DTD SVG 1.1//EN"
 "http://www.w3.org/Graphics/SVG/1.1/DTD/svg11.dtd">
<!-- Generated by graphviz version 2.40.1 (20161225.0304)
 -->
<!-- Title: dependencies Pages: 1 -->
<svg width="538pt" height="211pt"
 viewBox="0.00 0.00 538.00 211.00" xmlns="http://www.w3.org/2000/svg" xmlns:xlink="http://www.w3.org/1999/xlink">
<g id="graph0" class="graph" transform="scale(1 1) rotate(0) translate(4 207)">
<title>dependencies</title>
<polygon fill="#ffffff" stroke="transparent" points="-4,4 -4,-207 534,-207 534,4 -4,4"/>
<text text-anchor="start" x="244.0091" y="-42.4" font-family="sans-serif" font-weight="bold" font-size="14.00" fill="#000000">Legend</text>
<polygon fill="#ffffb3" stroke="transparent" points="31,-10 31,-30 51,-30 51,-10 31,-10"/>
<text text-anchor="start" x="54.629" y="-15.4" font-family="sans-serif" font-size="14.00" fill="#000000"> &#160;Declarations</text>
<polygon fill="#8dd3c7" stroke="transparent" points="144,-10 144,-30 164,-30 164,-10 144,-10"/>
<text text-anchor="start" x="167.7251" y="-15.4" font-family="sans-serif" font-size="14.00" fill="#000000"> &#160;Module</text>
<polygon fill="#80b1d3" stroke="transparent" points="230,-10 230,-30 250,-30 250,-10 230,-10"/>
<text text-anchor="start" x="253.7812" y="-15.4" font-family="sans-serif" font-size="14.00" fill="#000000"> &#160;Bootstrap</text>
<polygon fill="#fdb462" stroke="transparent" points="327,-10 327,-30 347,-30 347,-10 327,-10"/>
<text text-anchor="start" x="350.6732" y="-15.4" font-family="sans-serif" font-size="14.00" fill="#000000"> &#160;Providers</text>
<polygon fill="#fb8072" stroke="transparent" points="423,-10 423,-30 443,-30 443,-10 423,-10"/>
<text text-anchor="start" x="446.7258" y="-15.4" font-family="sans-serif" font-size="14.00" fill="#000000"> &#160;Exports</text>
<g id="clust1" class="cluster">
<title>cluster_DiscordModule</title>
<polygon fill="none" stroke="#000000" stroke-dasharray="1,5" points="8,-70 8,-195 522,-195 522,-70 8,-70"/>
</g>
<g id="clust6" class="cluster">
<title>cluster_DiscordModule_providers</title>
<polygon fill="none" stroke="#000000" points="16,-78 16,-130 514,-130 514,-78 16,-78"/>
</g>
<!-- DiscordService -->
<g id="node1" class="node">
<title>DiscordService</title>
<ellipse fill="#fdb462" stroke="#000000" cx="435" cy="-104" rx="70.622" ry="18"/>
<text text-anchor="middle" x="435" y="-99.8" font-family="Times,serif" font-size="14.00" fill="#000000">DiscordService</text>
</g>
<!-- DiscordModule -->
<g id="node4" class="node">
<title>DiscordModule</title>
<polygon fill="#8dd3c7" stroke="#000000" points="331.8669,-187 328.8669,-191 307.8669,-191 304.8669,-187 228.1331,-187 228.1331,-151 331.8669,-151 331.8669,-187"/>
<text text-anchor="middle" x="280" y="-164.8" font-family="Times,serif" font-size="14.00" fill="#000000">DiscordModule</text>
</g>
<!-- DiscordService&#45;&gt;DiscordModule -->
<g id="edge1" class="edge">
<title>DiscordService&#45;&gt;DiscordModule</title>
<path fill="none" stroke="#000000" d="M435,-122.1061C435,-141.3391 435,-169 435,-169 435,-169 342.0439,-169 342.0439,-169"/>
<polygon fill="#000000" stroke="#000000" points="342.044,-165.5001 332.0439,-169 342.0439,-172.5001 342.044,-165.5001"/>
</g>
<!-- ProfileService -->
<g id="node2" class="node">
<title>ProfileService</title>
<ellipse fill="#fdb462" stroke="#000000" cx="280" cy="-104" rx="66.0454" ry="18"/>
<text text-anchor="middle" x="280" y="-99.8" font-family="Times,serif" font-size="14.00" fill="#000000">ProfileService</text>
</g>
<!-- ProfileService&#45;&gt;DiscordModule -->
<g id="edge2" class="edge">
<title>ProfileService&#45;&gt;DiscordModule</title>
<path fill="none" stroke="#000000" d="M280,-122.1061C280,-122.1061 280,-140.991 280,-140.991"/>
<polygon fill="#000000" stroke="#000000" points="276.5001,-140.9909 280,-150.991 283.5001,-140.991 276.5001,-140.9909"/>
</g>
<!-- TransactionService -->
<g id="node3" class="node">
<title>TransactionService</title>
<ellipse fill="#fdb462" stroke="#000000" cx="110" cy="-104" rx="85.6493" ry="18"/>
<text text-anchor="middle" x="110" y="-99.8" font-family="Times,serif" font-size="14.00" fill="#000000">TransactionService</text>
</g>
<!-- TransactionService&#45;&gt;DiscordModule -->
<g id="edge3" class="edge">
<title>TransactionService&#45;&gt;DiscordModule</title>
<path fill="none" stroke="#000000" d="M110,-122.1061C110,-141.3391 110,-169 110,-169 110,-169 218.0707,-169 218.0707,-169"/>
<polygon fill="#000000" stroke="#000000" points="218.0707,-172.5001 228.0707,-169 218.0706,-165.5001 218.0707,-172.5001"/>
</g>
</g>
</svg>
