<?xml version="1.0" encoding="UTF-8" standalone="no"?>
<!DOCTYPE svg PUBLIC "-//W3C//DTD SVG 1.1//EN"
 "http://www.w3.org/Graphics/SVG/1.1/DTD/svg11.dtd">
<!-- Generated by graphviz version 2.40.1 (20161225.0304)
 -->
<!-- Title: dependencies Pages: 1 -->
<svg width="560pt" height="279pt"
 viewBox="0.00 0.00 560.00 279.00" xmlns="http://www.w3.org/2000/svg" xmlns:xlink="http://www.w3.org/1999/xlink">
<g id="graph0" class="graph" transform="scale(1 1) rotate(0) translate(4 275)">
<title>dependencies</title>
<polygon fill="#ffffff" stroke="transparent" points="-4,4 -4,-275 556,-275 556,4 -4,4"/>
<text text-anchor="start" x="255.0091" y="-42.4" font-family="sans-serif" font-weight="bold" font-size="14.00" fill="#000000">Legend</text>
<polygon fill="#ffffb3" stroke="transparent" points="42,-10 42,-30 62,-30 62,-10 42,-10"/>
<text text-anchor="start" x="65.629" y="-15.4" font-family="sans-serif" font-size="14.00" fill="#000000"> &#160;Declarations</text>
<polygon fill="#8dd3c7" stroke="transparent" points="155,-10 155,-30 175,-30 175,-10 155,-10"/>
<text text-anchor="start" x="178.7251" y="-15.4" font-family="sans-serif" font-size="14.00" fill="#000000"> &#160;Module</text>
<polygon fill="#80b1d3" stroke="transparent" points="241,-10 241,-30 261,-30 261,-10 241,-10"/>
<text text-anchor="start" x="264.7812" y="-15.4" font-family="sans-serif" font-size="14.00" fill="#000000"> &#160;Bootstrap</text>
<polygon fill="#fdb462" stroke="transparent" points="338,-10 338,-30 358,-30 358,-10 338,-10"/>
<text text-anchor="start" x="361.6732" y="-15.4" font-family="sans-serif" font-size="14.00" fill="#000000"> &#160;Providers</text>
<polygon fill="#fb8072" stroke="transparent" points="434,-10 434,-30 454,-30 454,-10 434,-10"/>
<text text-anchor="start" x="457.7258" y="-15.4" font-family="sans-serif" font-size="14.00" fill="#000000"> &#160;Exports</text>
<g id="clust1" class="cluster">
<title>cluster_AppModule</title>
<polygon fill="none" stroke="#000000" stroke-dasharray="1,5" points="8,-70 8,-263 362,-263 362,-70 8,-70"/>
</g>
<g id="clust3" class="cluster">
<title>cluster_AppModule_imports</title>
<polygon fill="none" stroke="#000000" points="200,-146 200,-198 320,-198 320,-146 200,-146"/>
</g>
<g id="clust6" class="cluster">
<title>cluster_AppModule_providers</title>
<polygon fill="none" stroke="#000000" points="16,-78 16,-130 354,-130 354,-78 16,-78"/>
</g>
<g id="clust7" class="cluster">
<title>cluster_DiscordModule</title>
<polygon fill="none" stroke="#000000" stroke-dasharray="1,5" points="370,-70 370,-138 544,-138 544,-70 370,-70"/>
</g>
<g id="clust12" class="cluster">
<title>cluster_DiscordModule_providers</title>
<polygon fill="none" stroke="#000000" points="378,-78 378,-130 536,-130 536,-78 378,-78"/>
</g>
<!-- DiscordModule -->
<g id="node1" class="node">
<title>DiscordModule</title>
<polygon fill="#8dd3c7" stroke="#000000" points="311.8669,-190 308.8669,-194 287.8669,-194 284.8669,-190 208.1331,-190 208.1331,-154 311.8669,-154 311.8669,-190"/>
<text text-anchor="middle" x="260" y="-167.8" font-family="Times,serif" font-size="14.00" fill="#000000">DiscordModule</text>
</g>
<!-- AppModule -->
<g id="node2" class="node">
<title>AppModule</title>
<polygon fill="#8dd3c7" stroke="#000000" points="230.6571,-255 227.6571,-259 206.6571,-259 203.6571,-255 147.3429,-255 147.3429,-219 230.6571,-219 230.6571,-255"/>
<text text-anchor="middle" x="189" y="-232.8" font-family="Times,serif" font-size="14.00" fill="#000000">AppModule</text>
</g>
<!-- DiscordModule&#45;&gt;AppModule -->
<g id="edge1" class="edge">
<title>DiscordModule&#45;&gt;AppModule</title>
<path fill="none" stroke="#000000" d="M219.4474,-190.1061C219.4474,-190.1061 219.4474,-208.991 219.4474,-208.991"/>
<polygon fill="#000000" stroke="#000000" points="215.9475,-208.9909 219.4474,-218.991 222.9475,-208.991 215.9475,-208.9909"/>
</g>
<!-- ProfileService -->
<g id="node3" class="node">
<title>ProfileService</title>
<ellipse fill="#fdb462" stroke="#000000" cx="90" cy="-104" rx="66.0454" ry="18"/>
<text text-anchor="middle" x="90" y="-99.8" font-family="Times,serif" font-size="14.00" fill="#000000">ProfileService</text>
</g>
<!-- ProfileService&#45;&gt;DiscordModule -->
<g id="edge5" class="edge">
<title>ProfileService&#45;&gt;DiscordModule</title>
<path fill="none" stroke="#000000" d="M153.2388,-109.7976C153.2388,-126.2419 153.2388,-172 153.2388,-172 153.2388,-172 197.8704,-172 197.8704,-172"/>
<polygon fill="#000000" stroke="#000000" points="197.8704,-175.5001 207.8704,-172 197.8704,-168.5001 197.8704,-175.5001"/>
</g>
<!-- ProfileService&#45;&gt;AppModule -->
<g id="edge2" class="edge">
<title>ProfileService&#45;&gt;AppModule</title>
<path fill="none" stroke="#000000" d="M150.2053,-111.5317C150.2053,-111.5317 150.2053,-208.5724 150.2053,-208.5724"/>
<polygon fill="#000000" stroke="#000000" points="146.7054,-208.5724 150.2053,-218.5724 153.7054,-208.5725 146.7054,-208.5724"/>
</g>
<!-- TransactionService -->
<g id="node4" class="node">
<title>TransactionService</title>
<ellipse fill="#fdb462" stroke="#000000" cx="260" cy="-104" rx="85.6493" ry="18"/>
<text text-anchor="middle" x="260" y="-99.8" font-family="Times,serif" font-size="14.00" fill="#000000">TransactionService</text>
</g>
<!-- TransactionService&#45;&gt;DiscordModule -->
<g id="edge6" class="edge">
<title>TransactionService&#45;&gt;DiscordModule</title>
<path fill="none" stroke="#000000" d="M260,-122.2228C260,-122.2228 260,-143.7269 260,-143.7269"/>
<polygon fill="#000000" stroke="#000000" points="256.5001,-143.7269 260,-153.7269 263.5001,-143.727 256.5001,-143.7269"/>
</g>
<!-- TransactionService&#45;&gt;AppModule -->
<g id="edge3" class="edge">
<title>TransactionService&#45;&gt;AppModule</title>
<path fill="none" stroke="#000000" d="M191.246,-114.8839C191.246,-114.8839 191.246,-208.8726 191.246,-208.8726"/>
<polygon fill="#000000" stroke="#000000" points="187.7461,-208.8726 191.246,-218.8726 194.7461,-208.8726 187.7461,-208.8726"/>
</g>
<!-- DiscordService -->
<g id="node5" class="node">
<title>DiscordService</title>
<ellipse fill="#fdb462" stroke="#000000" cx="457" cy="-104" rx="70.622" ry="18"/>
<text text-anchor="middle" x="457" y="-99.8" font-family="Times,serif" font-size="14.00" fill="#000000">DiscordService</text>
</g>
<!-- DiscordService&#45;&gt;DiscordModule -->
<g id="edge4" class="edge">
<title>DiscordService&#45;&gt;DiscordModule</title>
<path fill="none" stroke="#000000" d="M457,-122.2228C457,-142.3652 457,-172 457,-172 457,-172 322.0171,-172 322.0171,-172"/>
<polygon fill="#000000" stroke="#000000" points="322.0172,-168.5001 312.0171,-172 322.0171,-175.5001 322.0172,-168.5001"/>
</g>
</g>
</svg>
